<mxfile host="app.diagrams.net" modified="2021-02-10T22:02:05.546Z" agent="5.0 (Windows)" etag="KsdX_PJK_WU7IttlGxzh" version="14.3.0" type="github">
  <diagram id="v0tCK7hvLTf_ZGROnLf3" name="Page-1">
    <mxGraphModel dx="2062" dy="1123" grid="1" gridSize="10" guides="1" tooltips="1" connect="1" arrows="1" fold="1" page="1" pageScale="1" pageWidth="1169" pageHeight="1654" math="0" shadow="0">
      <root>
        <mxCell id="0" />
        <mxCell id="1" parent="0" />
        <mxCell id="d1zsz3syYBLmQ0Gh38gO-1" value="" style="rounded=0;whiteSpace=wrap;html=1;" vertex="1" parent="1">
          <mxGeometry x="500" y="60" width="120" height="60" as="geometry" />
        </mxCell>
      </root>
    </mxGraphModel>
  </diagram>
</mxfile>
